<svg viewBox="0 0 152 39" fill="currentColor" height="1em" data-testid="competition-center-logo" class="StyledComponents-new__CompetitionCenterLogo-sc-19wlyms-0 eNKifM"><g clip-path="url(#competition-center-logo_icon_svg__clip0_12_458)"><path fill-rule="evenodd" clip-rule="evenodd" d="M90.147 15.536c.243-.133.442-.32.597-.563.156-.243.27-.52.341-.83.074-.31.109-.649.109-1.013 0-.364-.038-.706-.114-1.029a2.505 2.505 0 00-.352-.836 1.782 1.782 0 00-.602-.557 1.743 1.743 0 00-.866-.205c-.326 0-.61.07-.853.205a1.721 1.721 0 00-.596.557 2.562 2.562 0 00-.348.836 4.476 4.476 0 00-.113 1.03c0 .363.038.701.114 1.011.076.311.19.586.347.825.154.24.355.427.602.563.246.137.537.205.87.205.334 0 .621-.066.864-.199zM45.775 10.885c-.231-.163-.56-.245-.984-.245h-.978v2.196h1.046c.402 0 .713-.084.933-.25.22-.167.334-.448.34-.842-.006-.41-.126-.696-.357-.86zM100.437 22.609a1.629 1.629 0 00-.455-.137 3.421 3.421 0 00-.517-.04h-.887v1.866h.864c.204 0 .394-.011.569-.034.174-.023.325-.07.454-.137a.786.786 0 00.307-.284.865.865 0 00.114-.466.853.853 0 00-.125-.484.806.806 0 00-.324-.284zM23.74 11.265a1.775 1.775 0 00-.604-.557 1.736 1.736 0 00-.864-.205c-.326 0-.61.07-.853.205a1.721 1.721 0 00-.597.557 2.584 2.584 0 00-.347.836 4.476 4.476 0 00-.113 1.03c0 .363.037.701.113 1.011.076.311.192.586.347.825.155.24.356.427.603.563.246.137.536.205.87.205.333 0 .621-.066.864-.199s.442-.32.597-.563c.155-.243.27-.52.341-.83.073-.31.108-.649.108-1.013 0-.364-.037-.706-.113-1.029a2.485 2.485 0 00-.353-.836z" fill="#fff"></path><mask id="competition-center-logo_icon_svg__a" style="mask-type:alpha" maskUnits="userSpaceOnUse" x="0" y="0" width="147" height="39"><path d="M0 0h146.14v38.87H0V0z" fill="#fff"></path></mask><g mask="url(#competition-center-logo_icon_svg__a)"><path fill-rule="evenodd" clip-rule="evenodd" d="M101.114 28.972l-.119-.495c-.042-.17-.088-.348-.137-.534-.049-.186-.097-.368-.142-.546a12.706 12.706 0 00-.114-.427 3.305 3.305 0 00-.176-.534.813.813 0 00-.262-.336 1.066 1.066 0 00-.41-.17 3.323 3.323 0 00-.664-.052h-.512v3.094h-1.99v-8.121h3.32c.387 0 .753.037 1.098.108.345.073.658.192.938.359.281.167.506.394.677.682.171.288.256.649.256 1.081-.008.516-.129.923-.364 1.222-.235.3-.554.525-.956.677v.023c.114.045.215.1.302.165.087.064.167.149.239.256.072.106.14.24.204.403.065.164.131.366.2.609.129.432.254.855.375 1.268.121.413.246.836.375 1.268h-2.138zM96.29 9.059h3.093l1.945 6.187h.022V9.059h1.854v8.121h-2.968l-2.07-6.301h-.023v6.301H96.29V9.059zm-2.671 19.913h-5.21v-8.121h5.108v1.581H90.4v1.615h2.854v1.581H90.4v1.763h3.218v1.581zm-7.253-12.838a3.77 3.77 0 01-.751-1.326 5.285 5.285 0 01-.255-1.677c0-.614.083-1.175.25-1.683.167-.508.415-.952.745-1.331a3.33 3.33 0 011.228-.881c.489-.209 1.048-.313 1.678-.313.644 0 1.209.104 1.694.313.486.208.893.498 1.223.869.33.372.58.814.75 1.325a5.35 5.35 0 01.256 1.701c0 .607-.085 1.166-.256 1.677-.17.512-.42.954-.75 1.326a3.41 3.41 0 01-1.228.87c-.49.208-1.052.312-1.69.312-.63 0-1.186-.104-1.671-.312a3.425 3.425 0 01-1.223-.87zm-.583 6.298h-1.99v6.54h-1.991v-6.54h-2.013v-1.581h5.994v1.581zM77.637 10.64h-1.99v6.54h-1.991v-6.54h-2.012V9.059h5.993v1.581zm-.475 18.332h-2.968l-2.07-6.301H72.1v6.301h-1.854v-8.121h3.094l1.945 6.187h.022v-6.187h1.854v8.121zM67.026 17.18h1.99V9.059h-1.99v8.121zm.253 11.792h-5.21v-8.121h5.107v1.581H64.06v1.615h2.855v1.581H64.06v1.763h3.219v1.581zM58.405 10.64V9.059h5.994v1.581h-1.991v6.54h-1.99v-6.54h-2.013zm-.31 18.394c-.337.05-.688.074-1.052.074a4.477 4.477 0 01-1.683-.306 3.74 3.74 0 01-2.138-2.184 4.6 4.6 0 01-.296-1.684c0-.614.097-1.177.29-1.689.193-.511.468-.955.825-1.33a3.701 3.701 0 011.319-.881 4.573 4.573 0 011.74-.319c.743 0 1.388.091 1.933.273l-.295 1.558a5.043 5.043 0 00-.7-.182 4.012 4.012 0 00-.722-.068c-.38 0-.722.072-1.03.216a2.142 2.142 0 00-.761.585c-.201.247-.353.53-.455.848a3.264 3.264 0 00-.154 1.001c0 .334.052.656.154.966.102.311.254.588.455.831.2.243.45.434.75.574.3.141.643.211 1.03.211a4.065 4.065 0 001.478-.262l.285 1.536a5.436 5.436 0 01-.973.232zM50.967 9.059h5.106v1.581h-3.116v1.615h2.855v1.581h-2.855v1.763h3.219v1.581h-5.21V9.059zm-3.088 3.89a2.27 2.27 0 01-.66.847 2.646 2.646 0 01-.96.472 4.5 4.5 0 01-1.183.148h-1.263v2.764h-1.99V9.059h3.253c.394 0 .779.044 1.154.131.375.087.703.232.984.432.28.201.502.471.665.808.163.337.245.752.245 1.245 0 .501-.082.925-.245 1.274zm-9.422 4.231H36.58v-6.426h-.023L35.09 17.18h-2.48l-1.477-6.426h-.023v6.426H29.3V9.059h3.322l1.24 6.21h.034l1.217-6.21h3.344v8.121zM25.94 14.808a3.77 3.77 0 01-.751 1.326c-.33.371-.74.661-1.228.87-.49.208-1.053.312-1.69.312-.63 0-1.186-.104-1.671-.312a3.417 3.417 0 01-1.223-.87 3.77 3.77 0 01-.751-1.326 5.285 5.285 0 01-.256-1.677c0-.614.084-1.175.25-1.683.167-.508.416-.952.745-1.331.33-.379.74-.673 1.229-.881.489-.209 1.048-.313 1.678-.313.644 0 1.209.104 1.694.313a3.41 3.41 0 011.223.869c.33.372.58.814.75 1.325.17.513.257 1.079.257 1.701 0 .607-.086 1.166-.256 1.677zm-10.964 2.435a7.468 7.468 0 01-1.052.073 4.46 4.46 0 01-1.684-.307 3.724 3.724 0 01-1.302-.864 3.926 3.926 0 01-.836-1.319 4.623 4.623 0 01-.296-1.684c0-.614.097-1.177.29-1.689.194-.511.469-.955.825-1.33.357-.376.796-.67 1.319-.882a4.593 4.593 0 011.74-.318c.743 0 1.388.091 1.934.273l-.296 1.558a4.892 4.892 0 00-.7-.182 3.934 3.934 0 00-.722-.068c-.378 0-.722.072-1.03.216a2.142 2.142 0 00-.761.585 2.568 2.568 0 00-.455.848 3.259 3.259 0 000 1.967c.102.311.254.588.455.831.2.242.45.434.75.574.3.14.644.211 1.03.211a4.144 4.144 0 001.479-.262l.284 1.535a5.428 5.428 0 01-.972.234zm65.287-.063h1.99V9.059h-1.99v8.121zm65.343 10.05a1.01 1.01 0 00-1.368.413 17.402 17.402 0 01-15.363 9.206c-9.602 0-17.414-7.812-17.414-17.414s7.812-17.414 17.414-17.414a17.449 17.449 0 0115.212 8.93 1.01 1.01 0 001.764-.986A19.468 19.468 0 00128.876 0a19.365 19.365 0 00-13.205 5.188H4.265L0 20.968h46.15l-3.236 11.973h71.999c3.536 3.654 8.489 5.93 13.963 5.93a19.422 19.422 0 0017.145-10.274 1.01 1.01 0 00-.414-1.367z" fill="#fff"></path></g><mask id="competition-center-logo_icon_svg__b" style="mask-type:alpha" maskUnits="userSpaceOnUse" x="120" y="7" width="32" height="25"><path d="M120.836 7.23h30.196v24.43h-30.196V7.23z" fill="#fff"></path></mask><g mask="url(#competition-center-logo_icon_svg__b)"><path fill-rule="evenodd" clip-rule="evenodd" d="M148.522 22.241l-1.985-1.043-1.986 1.043.379-2.212-1.606-1.566 2.219-.32.994-2.012.992 2.011 2.22.322-1.607 1.566.38 2.211zm-1.986-7.377a4.497 4.497 0 00-4.385 3.512h-3.393v-6.934h-6.883v-3.39h-7.742a1.787 1.787 0 00-1.504-.823 1.793 1.793 0 101.497 2.78h5.792v4.825h-5.695a1.788 1.788 0 00-3.387.806c0 .99.803 1.793 1.793 1.793.55 0 1.037-.253 1.366-.643h7.88V13.4h4.926v11.91h-4.926v-3.391h-7.629a1.791 1.791 0 00-3.41.764c0 .99.803 1.793 1.793 1.793.531 0 1.002-.235 1.331-.6h5.958v4.823h-5.938a1.78 1.78 0 00-1.351-.625 1.792 1.792 0 100 3.585c.706 0 1.31-.41 1.602-1.002h7.644v-3.39h6.883V20.33h3.389a4.496 4.496 0 104.389-5.466z" fill="#fff"></path></g></g><defs><clipPath id="competition-center-logo_icon_svg__clip0_12_458"><path fill="#fff" d="M0 0h151.032v38.871H0z"></path></clipPath></defs></svg>